<?xml version="1.0" standalone="no"?>
<!DOCTYPE svg PUBLIC "-//W3C//DTD SVG 20010904//EN"
 "http://www.w3.org/TR/2001/REC-SVG-20010904/DTD/svg10.dtd">
<svg version="1.0" xmlns="http://www.w3.org/2000/svg"
 width="1998.000000pt" height="2001.000000pt" viewBox="0 0 1998.000000 2001.000000"
 preserveAspectRatio="xMidYMid meet">

<g transform="translate(0.000000,2001.000000) scale(0.100000,-0.100000)"
fill="#000000" stroke="none">
<path d="M9779 18249 c-1675 -67 -3311 -653 -4662 -1668 -799 -600 -1483
-1340 -2024 -2190 -362 -568 -675 -1232 -886 -1876 -439 -1345 -530 -2786
-261 -4170 210 -1085 635 -2120 1247 -3040 896 -1347 2178 -2410 3677 -3048
1579 -673 3355 -839 5025 -471 1036 228 1972 624 2845 1205 1024 681 1879
1573 2512 2619 1079 1784 1451 3911 1042 5950 -404 2012 -1528 3796 -3166
5025 -1540 1156 -3424 1742 -5349 1664z m956 -184 c1078 -83 2069 -357 3050
-846 795 -396 1473 -886 2120 -1534 627 -627 1103 -1284 1496 -2063 501 -993
776 -1977 865 -3098 24 -287 24 -910 1 -1197 -65 -805 -219 -1509 -487 -2232
-420 -1130 -1033 -2088 -1870 -2925 -647 -646 -1306 -1127 -2088 -1521 -991
-499 -1989 -778 -3098 -865 -286 -23 -912 -23 -1197 0 -653 51 -1210 157
-1827 348 -1661 514 -3097 1537 -4153 2960 -670 901 -1166 2009 -1406 3133
-76 359 -126 710 -157 1102 -23 285 -23 911 0 1197 87 1109 366 2108 865 3098
395 784 876 1443 1526 2093 922 921 2031 1592 3306 1999 657 209 1414 340
2144 370 177 7 713 -4 910 -19z"/>
<path d="M7563 16219 c-47 -9 -79 -23 -108 -49 -11 -10 -55 -29 -97 -43 -42
-14 -92 -36 -110 -50 -18 -14 -44 -28 -58 -32 -40 -11 -232 -106 -265 -130
-16 -12 -50 -30 -75 -39 -25 -9 -64 -30 -87 -47 -22 -16 -61 -38 -85 -49 -48
-22 -159 -88 -198 -118 -14 -11 -45 -29 -70 -42 -25 -12 -58 -34 -75 -47 -36
-29 -102 -73 -195 -128 -103 -61 -169 -105 -177 -119 -5 -7 -19 -20 -33 -29
-35 -24 -100 -81 -194 -167 -44 -42 -98 -90 -119 -108 -52 -44 -303 -319 -331
-362 -13 -19 -31 -42 -41 -50 -33 -28 -97 -130 -197 -318 -20 -38 -43 -76 -51
-84 -19 -19 -47 -73 -47 -91 0 -8 -15 -37 -33 -63 -18 -27 -41 -69 -51 -94
-10 -25 -26 -59 -36 -75 -10 -17 -28 -63 -39 -104 -11 -40 -31 -92 -44 -115
-24 -42 -38 -86 -58 -189 -6 -32 -21 -82 -34 -110 -13 -29 -31 -101 -40 -162
-9 -60 -23 -153 -32 -205 -29 -178 -32 -205 -39 -445 -7 -254 6 -529 31 -640
7 -33 21 -121 30 -195 16 -131 38 -234 55 -255 9 -10 28 -87 50 -200 7 -33 21
-73 32 -88 11 -16 30 -65 43 -110 12 -46 57 -153 99 -238 42 -85 76 -160 76
-165 0 -6 13 -29 28 -50 16 -21 42 -66 59 -99 65 -130 102 -192 127 -220 14
-15 26 -32 26 -37 0 -5 17 -27 38 -51 21 -23 49 -58 62 -77 30 -45 53 -69 193
-210 144 -144 162 -161 217 -195 25 -15 62 -42 82 -59 94 -77 115 -94 150
-114 20 -12 39 -29 42 -38 3 -8 31 -26 63 -40 31 -14 72 -39 90 -55 19 -16 40
-29 47 -29 8 0 37 -16 66 -36 28 -19 70 -42 93 -50 22 -8 56 -26 74 -40 18
-14 65 -36 103 -49 39 -13 83 -33 98 -43 15 -11 63 -31 107 -45 44 -14 98 -33
120 -43 22 -9 71 -25 109 -36 37 -10 86 -28 107 -39 23 -11 104 -30 187 -44
81 -13 177 -33 213 -44 94 -30 309 -53 351 -40 64 21 66 29 61 221 -6 269 -20
561 -28 579 -7 18 -75 59 -97 59 -8 0 -36 11 -62 25 -26 14 -75 35 -108 46
-34 11 -75 31 -93 45 -17 13 -37 24 -43 24 -6 0 -40 20 -76 45 -37 25 -71 45
-76 45 -6 0 -29 17 -53 38 -23 20 -58 46 -77 56 -42 23 -183 145 -299 259 -86
84 -175 188 -223 260 -15 22 -39 52 -53 67 -14 14 -25 31 -25 37 0 6 -16 30
-36 54 -19 23 -45 61 -56 83 -12 23 -31 55 -43 71 -13 17 -25 39 -29 50 -3 11
-22 45 -41 75 -20 30 -43 80 -51 110 -9 30 -28 73 -44 95 -15 22 -35 63 -43
91 -8 28 -27 75 -40 105 -14 30 -33 88 -43 129 -9 41 -29 107 -45 145 -15 39
-33 110 -39 160 -13 95 -29 177 -53 261 -32 108 -41 272 -41 689 0 443 13 609
53 700 11 25 27 96 36 159 16 117 28 165 51 201 7 11 24 62 38 114 14 51 32
104 41 118 9 13 28 54 41 90 14 36 35 79 48 97 13 17 31 54 40 82 9 28 26 61
38 73 11 13 33 49 48 80 15 31 35 63 45 71 9 7 25 30 35 50 10 20 26 43 36 51
9 7 28 32 42 54 47 74 165 209 301 344 186 184 330 301 442 360 31 16 69 41
85 54 16 13 48 34 72 47 23 13 42 28 42 32 0 5 28 22 63 37 34 16 71 38 81 50
11 12 38 30 60 40 23 10 61 38 85 61 l44 43 -7 61 c-3 33 -15 76 -26 95 -11
20 -33 64 -50 99 -59 126 -104 164 -177 151z"/>
<path d="M10010 16169 c-25 -5 -120 -20 -212 -34 -127 -18 -179 -30 -219 -51
-29 -14 -75 -33 -103 -41 -27 -8 -80 -30 -116 -49 -37 -19 -72 -34 -77 -34 -6
0 -28 -13 -50 -29 -22 -16 -60 -39 -84 -51 -24 -13 -61 -38 -82 -56 -20 -19
-41 -34 -47 -34 -14 0 -177 -139 -230 -195 -25 -27 -76 -80 -115 -119 -92 -94
-164 -183 -182 -226 -9 -19 -28 -49 -43 -67 -15 -17 -34 -49 -40 -70 -7 -21
-25 -56 -40 -78 -15 -22 -37 -66 -49 -98 -11 -32 -30 -70 -40 -85 -11 -15 -27
-54 -37 -87 -9 -33 -29 -87 -45 -121 -16 -33 -36 -97 -44 -142 -8 -45 -25
-117 -39 -161 -27 -84 -76 -333 -103 -521 -14 -101 -17 -277 -20 -1435 -2
-795 1 -1541 7 -1875 7 -305 15 -737 20 -960 4 -223 13 -497 19 -610 8 -146 9
-301 1 -545 -5 -187 -9 -738 -10 -1225 0 -917 -12 -1685 -30 -1945 -11 -145
-7 -232 11 -266 18 -35 95 -69 153 -69 87 0 254 36 316 68 30 16 79 35 108 42
29 6 68 23 88 36 20 14 61 38 92 55 99 52 176 100 202 123 14 13 39 32 55 42
17 10 56 46 88 79 138 144 132 136 167 248 17 55 18 83 10 400 -5 188 -14 709
-20 1157 -33 2628 -29 2428 -50 2515 -16 70 -20 150 -30 625 -13 688 -14 3993
0 4145 5 61 19 169 30 240 11 72 27 184 35 249 10 86 22 134 40 170 14 28 33
76 44 106 22 65 82 150 143 201 57 48 71 54 164 79 132 36 189 36 371 1 135
-26 179 -40 267 -80 57 -27 113 -57 123 -68 11 -10 41 -34 67 -53 27 -19 62
-45 78 -57 80 -59 218 -215 285 -322 16 -24 43 -62 62 -85 19 -22 40 -55 47
-72 7 -17 20 -37 29 -44 9 -8 30 -41 47 -74 17 -34 39 -72 50 -85 10 -13 25
-48 34 -76 8 -29 28 -72 43 -96 16 -24 39 -77 51 -117 11 -40 29 -87 40 -105
10 -18 26 -62 34 -100 9 -37 27 -89 40 -116 16 -30 31 -89 41 -152 9 -57 27
-142 40 -189 89 -318 107 -1200 34 -1680 -5 -36 -18 -92 -29 -125 -11 -33 -28
-114 -39 -181 -11 -71 -28 -139 -41 -164 -12 -24 -33 -82 -45 -128 -13 -45
-30 -93 -38 -105 -8 -12 -24 -53 -37 -92 -12 -38 -35 -90 -51 -114 -15 -24
-35 -67 -43 -95 -9 -29 -24 -60 -35 -70 -11 -10 -31 -41 -44 -69 -14 -29 -39
-69 -56 -91 -17 -21 -31 -45 -31 -52 0 -7 -14 -30 -32 -50 -17 -20 -43 -53
-57 -74 -14 -20 -44 -64 -67 -97 -72 -107 -287 -311 -432 -410 -26 -18 -65
-46 -88 -63 -23 -16 -45 -30 -51 -30 -5 0 -32 -16 -59 -35 -27 -19 -65 -40
-84 -46 -19 -6 -62 -24 -95 -40 -33 -16 -103 -37 -155 -48 -53 -11 -118 -31
-145 -44 -28 -14 -81 -30 -120 -37 -105 -19 -112 -23 -126 -72 -14 -53 -4
-518 13 -560 10 -27 13 -28 79 -28 44 0 90 7 127 20 31 12 98 32 147 46 50 13
110 33 135 44 25 10 76 26 115 35 38 9 93 29 121 45 28 16 78 36 110 46 33 9
91 34 129 54 39 21 81 41 95 45 14 4 37 16 51 26 14 10 45 25 70 35 24 9 55
27 69 39 14 12 50 36 80 52 31 17 68 42 84 56 16 15 38 29 50 33 20 6 108 66
171 117 17 13 49 34 73 46 97 49 262 189 466 396 71 71 143 148 160 171 62 81
116 149 133 168 22 23 86 110 110 150 10 16 32 48 50 72 18 24 43 65 57 92 13
26 31 54 39 61 8 6 25 37 38 69 12 31 32 71 44 87 12 17 34 60 50 98 15 37 34
72 42 78 7 7 20 37 29 68 8 31 30 88 49 126 20 39 39 94 45 123 5 29 23 84 40
122 17 38 37 104 46 147 8 43 26 112 39 153 13 41 31 136 40 210 9 74 27 184
41 243 55 242 55 901 -1 1137 -13 58 -32 166 -41 240 -9 74 -27 169 -39 210
-13 41 -33 114 -44 163 -11 48 -30 105 -41 127 -12 23 -29 75 -40 116 -10 42
-30 92 -43 112 -14 21 -35 69 -46 107 -11 39 -31 85 -45 103 -13 19 -30 48
-37 65 -7 18 -23 46 -36 64 -13 18 -32 53 -43 79 -11 26 -32 60 -46 77 -14 16
-36 51 -48 76 -13 25 -34 55 -46 66 -12 11 -29 33 -37 50 -17 33 -35 55 -149
187 -41 48 -89 97 -107 109 -18 12 -52 40 -75 63 -97 92 -133 123 -187 166
-31 25 -71 57 -88 71 -18 15 -52 36 -77 49 -25 12 -57 33 -71 47 -14 13 -53
38 -85 54 -33 16 -75 38 -94 49 -72 40 -148 73 -228 101 -45 15 -95 37 -112
49 -23 16 -79 28 -272 55 -246 35 -386 42 -478 24z"/>
<path d="M10680 7794 l0 -135 541 3 540 3 -38 -34 c-127 -115 -491 -464 -559
-538 -418 -454 -604 -859 -604 -1315 0 -231 54 -433 150 -563 127 -172 308
-269 628 -335 398 -83 492 -139 492 -294 0 -106 -56 -241 -169 -410 l-71 -106
163 0 162 1 41 58 c165 231 243 513 187 677 -59 178 -194 254 -632 359 -271
65 -362 103 -458 190 -110 99 -153 223 -153 445 0 343 111 636 373 984 177
237 500 565 815 831 l71 60 0 128 1 127 -740 0 -740 0 0 -136z"/>
<path d="M13545 7058 c-206 -15 -427 -128 -537 -273 -21 -28 -42 -51 -47 -53
-9 -3 -17 32 -42 173 -6 39 -15 81 -19 95 l-7 25 -129 0 -129 0 0 -1080 0
-1080 160 0 160 0 6 680 c5 590 8 690 22 753 39 164 76 241 156 321 116 116
242 162 451 164 191 1 296 -31 388 -121 53 -52 96 -128 116 -207 6 -25 12
-497 15 -1300 l6 -1260 160 0 160 0 3 1235 c2 1058 0 1250 -13 1337 -28 191
-76 298 -182 400 -154 151 -386 214 -698 191z"/>
</g>
</svg>
